<mxfile host="app.diagrams.net" modified="2021-03-02T15:27:36.987Z" agent="5.0 (X11; Linux x86_64) AppleWebKit/537.36 (KHTML, like Gecko) Chrome/88.0.4324.182 Safari/537.36" etag="YQhTsxc7q8qhmqmFD0sY" version="14.4.3" type="github">
  <diagram id="5plZKbPlIHDqdeCXFDGE" name="Page-1">
    <mxGraphModel dx="868" dy="496" grid="1" gridSize="10" guides="1" tooltips="1" connect="1" arrows="1" fold="1" page="1" pageScale="1" pageWidth="827" pageHeight="1169" math="0" shadow="0">
      <root>
        <mxCell id="0" />
        <mxCell id="1" parent="0" />
        <mxCell id="IZT8jsWd7h7Ih6-XtFO0-1" value="Instructor" style="shape=umlActor;verticalLabelPosition=bottom;verticalAlign=top;html=1;outlineConnect=0;" vertex="1" parent="1">
          <mxGeometry x="730" y="470" width="30" height="60" as="geometry" />
        </mxCell>
        <mxCell id="IZT8jsWd7h7Ih6-XtFO0-2" value="Student" style="shape=umlActor;verticalLabelPosition=bottom;verticalAlign=top;html=1;outlineConnect=0;" vertex="1" parent="1">
          <mxGeometry x="120" y="480" width="30" height="60" as="geometry" />
        </mxCell>
        <mxCell id="IZT8jsWd7h7Ih6-XtFO0-3" value="Authenticate" style="ellipse;whiteSpace=wrap;html=1;" vertex="1" parent="1">
          <mxGeometry x="294" width="120" height="60" as="geometry" />
        </mxCell>
        <mxCell id="IZT8jsWd7h7Ih6-XtFO0-5" style="rounded=0;orthogonalLoop=1;jettySize=auto;html=1;entryX=0;entryY=0.5;entryDx=0;entryDy=0;" edge="1" parent="1" source="IZT8jsWd7h7Ih6-XtFO0-4" target="IZT8jsWd7h7Ih6-XtFO0-3">
          <mxGeometry relative="1" as="geometry" />
        </mxCell>
        <mxCell id="IZT8jsWd7h7Ih6-XtFO0-7" style="edgeStyle=none;rounded=0;orthogonalLoop=1;jettySize=auto;html=1;entryX=0;entryY=0.5;entryDx=0;entryDy=0;" edge="1" parent="1" source="IZT8jsWd7h7Ih6-XtFO0-4" target="IZT8jsWd7h7Ih6-XtFO0-6">
          <mxGeometry relative="1" as="geometry">
            <mxPoint x="290" y="140" as="targetPoint" />
          </mxGeometry>
        </mxCell>
        <mxCell id="IZT8jsWd7h7Ih6-XtFO0-9" style="edgeStyle=none;rounded=0;orthogonalLoop=1;jettySize=auto;html=1;entryX=0;entryY=0.5;entryDx=0;entryDy=0;" edge="1" parent="1" source="IZT8jsWd7h7Ih6-XtFO0-4" target="IZT8jsWd7h7Ih6-XtFO0-8">
          <mxGeometry relative="1" as="geometry" />
        </mxCell>
        <mxCell id="IZT8jsWd7h7Ih6-XtFO0-12" style="edgeStyle=none;rounded=0;orthogonalLoop=1;jettySize=auto;html=1;entryX=0;entryY=0.5;entryDx=0;entryDy=0;" edge="1" parent="1" source="IZT8jsWd7h7Ih6-XtFO0-4" target="IZT8jsWd7h7Ih6-XtFO0-11">
          <mxGeometry relative="1" as="geometry" />
        </mxCell>
        <mxCell id="IZT8jsWd7h7Ih6-XtFO0-14" style="edgeStyle=none;rounded=0;orthogonalLoop=1;jettySize=auto;html=1;entryX=0;entryY=0.5;entryDx=0;entryDy=0;" edge="1" parent="1" source="IZT8jsWd7h7Ih6-XtFO0-4" target="IZT8jsWd7h7Ih6-XtFO0-13">
          <mxGeometry relative="1" as="geometry" />
        </mxCell>
        <mxCell id="IZT8jsWd7h7Ih6-XtFO0-4" value="User" style="shape=umlActor;verticalLabelPosition=bottom;verticalAlign=top;html=1;outlineConnect=0;" vertex="1" parent="1">
          <mxGeometry x="80" y="160" width="30" height="60" as="geometry" />
        </mxCell>
        <mxCell id="IZT8jsWd7h7Ih6-XtFO0-6" value="Xem danh sách các khóa học" style="ellipse;whiteSpace=wrap;html=1;" vertex="1" parent="1">
          <mxGeometry x="294" y="80" width="120" height="60" as="geometry" />
        </mxCell>
        <mxCell id="IZT8jsWd7h7Ih6-XtFO0-8" value="Cập nhật thông tin cá nhân" style="ellipse;whiteSpace=wrap;html=1;" vertex="1" parent="1">
          <mxGeometry x="294" y="160" width="120" height="60" as="geometry" />
        </mxCell>
        <mxCell id="IZT8jsWd7h7Ih6-XtFO0-11" value="Nhắn tin" style="ellipse;whiteSpace=wrap;html=1;" vertex="1" parent="1">
          <mxGeometry x="294" y="240" width="120" height="60" as="geometry" />
        </mxCell>
        <mxCell id="IZT8jsWd7h7Ih6-XtFO0-13" value="Gọi video" style="ellipse;whiteSpace=wrap;html=1;" vertex="1" parent="1">
          <mxGeometry x="294" y="320" width="120" height="60" as="geometry" />
        </mxCell>
        <mxCell id="IZT8jsWd7h7Ih6-XtFO0-17" value="" style="ellipse;whiteSpace=wrap;html=1;" vertex="1" parent="1">
          <mxGeometry x="470" y="470" width="120" height="80" as="geometry" />
        </mxCell>
        <mxCell id="IZT8jsWd7h7Ih6-XtFO0-19" value="Quản lý người dùng" style="ellipse;whiteSpace=wrap;html=1;" vertex="1" parent="1">
          <mxGeometry x="450" width="120" height="60" as="geometry" />
        </mxCell>
        <mxCell id="IZT8jsWd7h7Ih6-XtFO0-20" style="rounded=0;orthogonalLoop=1;jettySize=auto;html=1;entryX=1;entryY=0.5;entryDx=0;entryDy=0;" edge="1" parent="1" source="IZT8jsWd7h7Ih6-XtFO0-25" target="IZT8jsWd7h7Ih6-XtFO0-19">
          <mxGeometry relative="1" as="geometry" />
        </mxCell>
        <mxCell id="IZT8jsWd7h7Ih6-XtFO0-21" style="edgeStyle=none;rounded=0;orthogonalLoop=1;jettySize=auto;html=1;entryX=1;entryY=0.5;entryDx=0;entryDy=0;" edge="1" parent="1" source="IZT8jsWd7h7Ih6-XtFO0-25" target="IZT8jsWd7h7Ih6-XtFO0-26">
          <mxGeometry relative="1" as="geometry">
            <mxPoint x="440" y="160" as="targetPoint" />
          </mxGeometry>
        </mxCell>
        <mxCell id="IZT8jsWd7h7Ih6-XtFO0-22" style="edgeStyle=none;rounded=0;orthogonalLoop=1;jettySize=auto;html=1;entryX=1;entryY=0.5;entryDx=0;entryDy=0;" edge="1" parent="1" source="IZT8jsWd7h7Ih6-XtFO0-25" target="IZT8jsWd7h7Ih6-XtFO0-27">
          <mxGeometry relative="1" as="geometry" />
        </mxCell>
        <mxCell id="IZT8jsWd7h7Ih6-XtFO0-23" style="edgeStyle=none;rounded=0;orthogonalLoop=1;jettySize=auto;html=1;entryX=1;entryY=0.5;entryDx=0;entryDy=0;" edge="1" parent="1" source="IZT8jsWd7h7Ih6-XtFO0-25" target="IZT8jsWd7h7Ih6-XtFO0-28">
          <mxGeometry relative="1" as="geometry" />
        </mxCell>
        <mxCell id="IZT8jsWd7h7Ih6-XtFO0-25" value="Moderator" style="shape=umlActor;verticalLabelPosition=bottom;verticalAlign=top;html=1;outlineConnect=0;" vertex="1" parent="1">
          <mxGeometry x="760" y="110" width="30" height="60" as="geometry" />
        </mxCell>
        <mxCell id="IZT8jsWd7h7Ih6-XtFO0-26" value="Quản lý khóa học" style="ellipse;whiteSpace=wrap;html=1;" vertex="1" parent="1">
          <mxGeometry x="450" y="80" width="120" height="60" as="geometry" />
        </mxCell>
        <mxCell id="IZT8jsWd7h7Ih6-XtFO0-27" value="Quản lý tag" style="ellipse;whiteSpace=wrap;html=1;" vertex="1" parent="1">
          <mxGeometry x="450" y="160" width="120" height="60" as="geometry" />
        </mxCell>
        <mxCell id="IZT8jsWd7h7Ih6-XtFO0-28" value="Quản lý khuyễn mãi" style="ellipse;whiteSpace=wrap;html=1;" vertex="1" parent="1">
          <mxGeometry x="450" y="240" width="120" height="60" as="geometry" />
        </mxCell>
        <mxCell id="IZT8jsWd7h7Ih6-XtFO0-33" style="edgeStyle=none;rounded=0;orthogonalLoop=1;jettySize=auto;html=1;endArrow=block;endFill=0;" edge="1" parent="1" source="IZT8jsWd7h7Ih6-XtFO0-30" target="IZT8jsWd7h7Ih6-XtFO0-25">
          <mxGeometry relative="1" as="geometry" />
        </mxCell>
        <mxCell id="IZT8jsWd7h7Ih6-XtFO0-30" value="Administrator" style="shape=umlActor;verticalLabelPosition=bottom;verticalAlign=top;html=1;outlineConnect=0;" vertex="1" parent="1">
          <mxGeometry x="760" y="250" width="30" height="60" as="geometry" />
        </mxCell>
      </root>
    </mxGraphModel>
  </diagram>
</mxfile>
